# xmcd
#
# Track frame offsets:
#	150
#	13482
#	27433
#	41295
#	52241
#	65481
#	79279
#	92550
#	109102
#	123579
#	135881
#	151604
#	163353
#
# Disc length: 2334 seconds
#
# Revision: 1
# Processed by: cddbd v1.5.2PL0 Copyright (c) Steve Scherf et al.
# Submitted via: audiograbber 1.83.01
#
DISCID=ab091c0d
DTITLE=Tanya Tucker - Greatest Hits
DYEAR=2010
DGENRE=Country
TTITLE0=Delta Dawn
TTITLE1=What's Your Mama's Name
TTITLE2=Blood Red And Goin' Down
TTITLE3=Would You Lay With Me (In A Field Of Stone)
TTITLE4=San Antonio Stroll
TTITLE5=Lizzie And The Rainman
TTITLE6=Here's Some Love
TTITLE7=I Won't Take Less Than Your Love
TTITLE8=Just Another Love
TTITLE9=Strong Enough To Bend
TTITLE10=It It Don't Come Easy
TTITLE11=You Don't Know Me (Featuring Rhonda Vincent)
TTITLE12=Wine Me Up
EXTD=
EXTT0=
EXTT1=
EXTT2=
EXTT3=
EXTT4=
EXTT5=
EXTT6=
EXTT7=
EXTT8=
EXTT9=
EXTT10=
EXTT11=
EXTT12=
PLAYORDER=
